<?xml version="1.0" encoding="utf-8"?>
<!-- Generator: Adobe Illustrator 16.0.4, SVG Export Plug-In . SVG Version: 6.00 Build 0)  -->
<!DOCTYPE svg PUBLIC "-//W3C//DTD SVG 1.1//EN" "http://www.w3.org/Graphics/SVG/1.1/DTD/svg11.dtd">
<svg version="1.1" id="Layer_1" xmlns="http://www.w3.org/2000/svg" xmlns:xlink="http://www.w3.org/1999/xlink" x="0px" y="0px"
	 width="1000px" height="1000px" viewBox="0 0 1000 1000" enable-background="new 0 0 1000 1000" xml:space="preserve">
<style type="text/css">
	 .st0{fill:#ffffff;}
</style>
<title>pycantonese-logo-white</title>
<g>
	<path class="st0" fill-rule="evenodd" clip-rule="evenodd" d="M492.764,504.66c-13.311,2.229-26.573,4.838-39.947,6.598
		c-20.981,2.76-41.913,7.239-63.253,4.2c-4.772-0.681-9.664-2.046-13.964-4.178c-7.202-3.569-8.501-9.414-4.188-16.149
		c1.891-2.952,4.271-5.59,6.629-8.629c-30.44-17.37-55.03-41.48-77.68-67.703c-21.396-24.771-40.133-51.379-53.192-81.593
		c-12.775-29.555-18.279-60.061-10.128-91.901c6.428-25.114,20.547-45.532,39.377-63.027c23.329-21.674,50.875-36.651,79.256-50.287
		c33.097-15.901,66.698-30.607,102.238-40.295c5.828-1.588,11.941-2.334,17.975-2.891c4.966-0.459,9.544,1.19,11.788,6.09
		c2.189,4.781,1.164,9.634-2.657,12.98c-9.571,8.38-18.942,17.181-29.427,24.288c-26.812,18.171-54.365,35.245-81.278,53.271
		c-19.282,12.916-37.678,27.039-52.445,45.274c-9.528,11.766-16.029,24.663-15.201,40.328c0.073,1.372,0.103,2.751,0.289,4.109
		c0.071,0.521,0.523,0.99,0.711,1.322c8.633-7.71,16.963-15.672,25.834-22.977c31.69-26.095,67.935-44.382,105.44-60.287
		c46.021-19.516,93.508-34.373,142.881-42.66c38.442-6.453,77.01-8.906,115.115,1.799c40.534,11.387,68.993,35.974,79.702,77.855
		c7.736,30.255,3.418,60.07-6.014,89.315c-14.612,45.317-39.537,84.417-72.413,118.567
		c-57.313,59.533-126.507,98.66-206.377,119.032c-20.786,5.302-41.98,8.924-63.533,5.363c-6.039-0.997-12.111-3.229-17.536-6.093
		c-4.897-2.585-4.493-6.032,0.604-8.575c8.771-4.377,17.906-8.027,26.632-12.484c18.488-9.446,36.81-19.217,55.199-28.854
		C493.056,505.866,492.91,505.263,492.764,504.66z M426.877,455.76c-0.259,0.079,0.125,0.01,0.467-0.148
		c54.068-25.104,110.651-35.741,170.174-29.81c2.033,0.203,4.721-0.668,6.281-2.001c37.172-31.771,68.99-68.174,93.785-110.414
		c10.359-17.646,19.101-36.199,22.222-56.682c2.601-17.077,0.714-33.379-12.02-46.662c-8.678-9.051-19.633-14.217-31.398-17.758
		c-36.297-10.925-73.149-9.227-109.757-2.957c-64.419,11.032-123.967,35.208-179.359,69.734
		c-23.139,14.423-44.422,31.027-61.299,52.781c-2.909,3.75-3.218,6.652-0.706,10.988c18.399,31.762,40.436,60.792,64.938,88.033
		c1.652,1.836,2.802,4.123,3.718,5.498c11.87-8.827,22.052-16.505,32.346-24.027c10.315-7.538,20.742-14.922,32.523-23.381
		c-6.424,1.706-11.084,3.211-15.855,4.156c-10.762,2.132-21.558,4.124-32.395,5.819c-1.78,0.278-3.841-1.235-5.771-1.921
		c0.9-1.827,1.383-4.107,2.781-5.394c3.743-3.446,7.479-7.243,11.924-9.521c19.87-10.181,39.868-20.133,60.091-29.588
		c5.62-2.627,6.963-5.829,5.57-11.414c-2.338,0.55-4.429,1.043-6.52,1.533c-17.239,4.04-34.548,7.5-52.412,6.596
		c-18.549-0.937-31.17-13.011-28.459-29.261c1.208-7.249,5.426-15.035,10.584-20.334c7.132-7.328,15.714-14.118,24.951-18.364
		c30.975-14.241,62.329-27.711,93.927-40.515c13.486-5.465,28.187-7.105,42.844-6.184c3.086,0.194,7.295,1.904,8.612,4.25
		c0.931,1.659-1.368,6.483-3.552,8.315c-11.397,9.567-22.784,19.264-35.021,27.681c-11.569,7.957-24.19,14.385-36.201,21.399
		c2.215,6.817,4.296,13.223,6.525,20.084c7.594-7.506,14.587-14.9,22.096-21.727c10.628-9.661,22.571-17.196,37.343-18.375
		c11.425-0.912,16.023,5.125,10.743,15.064c-4.254,8.009-10.174,15.247-16.06,22.233c-3.722,4.418-8.739,7.746-13.493,11.837
		c13.818-2.97,26.912-6.503,40.239-8.403c9.404-1.341,19.154-0.957,28.692-0.379c4.848,0.294,9.59,2.79,10.826,8.521
		c1.188,5.502-2.078,9.111-6.097,11.774c-4.395,2.911-8.991,5.871-13.93,7.541c-19.483,6.593-39.079,12.869-58.747,18.896
		c-10.478,3.211-21.187,5.672-31.792,8.471c1.172,0.906,2.15,1.001,3.104,0.892c28.857-3.327,57.683-6.964,86.582-9.872
		c11.271-1.135,22.719-1.056,34.062-0.706c5.686,0.175,6.802,3.472,3.062,7.816c-2.913,3.383-6.302,6.564-10.021,9.01
		c-26.496,17.423-56.274,22.3-87.188,21.317c-9.813-0.312-19.543-3.286-29.327-5.044c0,2.049,0.312,4.638-0.053,7.127
		c-1.731,11.776-3.13,23.641-5.722,35.234c-1.271,5.69-4.886,11.382-11.985,11.179c-6.922-0.197-9.112-6.137-10.888-11.604
		c-1.571-4.835-2.823-9.823-3.659-14.837c-1.292-7.753-2.108-15.586-3.232-24.192c-16.523,28.928-39.914,47.869-70.898,56.806
		C418.197,441.596,422.347,448.367,426.877,455.76z M462.961,299.277c8.804,2.107,16.448,3.937,24.187,5.79
		c1.843-7.83,3.498-14.852,5.368-22.797C482.383,288.101,473.135,293.423,462.961,299.277z"/>
	<path class="st0" fill-rule="evenodd" clip-rule="evenodd" d="M478.551,649.607c-15.053,5.501-30.122,10.959-45.158,16.509
		c-78.438,28.948-155.037,62.316-231.434,96.183c-7.498,3.323-15.309,6.184-23.24,8.234c-13.253,3.427-28.36-4.391-34.271-16.935
		c-5.779-12.265-2.582-25.791,9.366-34.441c24.54-17.767,50.171-33.792,78.968-43.883c5.781-2.025,12.227-2.1,18.32-3.308
		c2.628-0.521,5.241-1.411,7.688-2.519c77.98-35.237,157.195-67.393,238.385-94.493c65.773-21.954,132.64-39.787,201.19-50.829
		c34.346-5.532,68.823-10.147,103.691-9.422c11.275,0.234,22.701,1.994,33.693,4.599c9.546,2.262,17.549,7.834,20.965,18.032
		c4.205,12.561,0.308,24.916-11.775,30.417c-10.965,4.99-22.761,8.591-34.539,11.29c-63.133,14.47-125.841,30.518-186.967,52.029
		c-24.182,8.51-47.537,19.372-71.249,29.212c-1.882,0.78-3.606,1.937-5.042,3.743c12.851-2.565,25.659-5.361,38.56-7.646
		c27.372-4.849,54.895-8.077,82.57-2.897c32.346,6.054,57.711,22.059,71.904,52.862c5.902,12.814,8.484,26.533,8.975,40.571
		c1.324,37.997-2.839,75.322-15.506,111.324c-13.47,38.284-46.763,55.335-83.956,52.778c-36.179-2.485-68.028-16.459-96.069-39.012
		c-6.126-4.928-11.104-11.582-15.625-18.122c-4.115-5.952-1.896-12.177,5.073-13.829c11.389-2.7,22.993-5.018,34.634-6.01
		c21.51-1.836,43.124-2.42,64.669-3.902c7.213-0.496,14.321-2.348,21.523-3.198c8.054-0.952,13.513-5.603,16.828-12.349
		c12.777-25.999,17.557-53.585,14.259-82.329c-1.793-15.614-12.194-24.452-26.341-29.402c-20.775-7.271-42.284-7.472-63.477-3.876
		c-36.729,6.232-73.155,14.231-109.835,20.779c-10.886,1.944-22.362,3.032-33.277,1.842c-21.03-2.294-29.732-23.966-16.187-40.297
		c8.186-9.868,18.594-17.899,28.061-26.694c1.557-1.447,3.412-2.573,5.129-3.846C478.887,650.385,478.719,649.995,478.551,649.607z"
		/>
</g>
</svg>
